<?xml version="1.0" standalone="no"?>
<!DOCTYPE svg PUBLIC "-//W3C//DTD SVG 20010904//EN"
 "http://www.w3.org/TR/2001/REC-SVG-20010904/DTD/svg10.dtd">
<svg version="1.0" xmlns="http://www.w3.org/2000/svg"
 width="200.000000pt" height="200.000000pt" viewBox="0 0 200.000000 200.000000"
 preserveAspectRatio="xMidYMid meet">
<metadata>
Created by potrace 1.14, written by Peter Selinger 2001-2017
</metadata>
<g transform="translate(0.000000,200.000000) scale(0.100000,-0.100000)"
fill="#000000" stroke="none">
<path d="M1126 1543 c1 -43 2 -80 3 -83 0 -3 141 -5 312 -5 171 0 312 -2 314
-5 2 -3 -66 -126 -152 -274 -174 -299 -167 -271 -71 -324 l56 -31 206 356 206
356 -25 44 -26 43 -412 0 -413 0 2 -77z"/>
<path d="M373 1102 c-22 -37 -52 -87 -66 -112 -13 -25 -48 -85 -77 -135 -29
-49 -62 -106 -72 -125 -11 -19 -42 -72 -69 -118 -27 -45 -49 -85 -49 -88 0 -3
-10 -18 -21 -34 l-22 -29 27 -45 27 -46 412 0 412 0 0 79 c1 64 -2 81 -15 83
-8 2 -151 4 -317 3 -167 0 -303 1 -303 2 0 4 54 100 183 322 l130 224 -24 20
c-13 10 -44 30 -70 42 l-45 23 -41 -66z"/>
</g>
</svg>
